<?xml version="1.0" encoding="UTF-8"?>
<svg width="439px" height="476px" viewBox="0 0 439 476" version="1.1" xmlns="http://www.w3.org/2000/svg" xmlns:xlink="http://www.w3.org/1999/xlink">
    <!-- Generator: Sketch 45.1 (43504) - http://www.bohemiancoding.com/sketch -->
    <title>thumbs-up</title>
    <desc>Created with Sketch.</desc>
    <defs></defs>
    <g id="Page-1" stroke="none" stroke-width="1" fill="none" fill-rule="evenodd">
        <g id="thumbs-up" transform="translate(219.500000, 238.000000) rotate(180.000000) translate(-219.500000, -238.000000) " fill-rule="nonzero" fill="#311E11">
            <path d="M424.829,265.532 C434.157,251.443 438.815,235.934 438.815,218.994 C438.815,199.387 431.59,182.357 417.128,167.877 C402.659,153.412 385.527,146.181 365.734,146.181 L315.483,146.181 C324.617,127.339 329.192,109.064 329.192,91.365 C329.192,69.094 325.852,51.394 319.196,38.26 C312.533,25.122 302.824,15.465 290.07,9.276 C277.313,3.09 262.947,0 246.959,0 C237.247,0 228.685,3.521 221.262,10.566 C213.079,18.559 207.178,28.84 203.563,41.403 C199.946,53.962 197.042,66.003 194.855,77.519 C192.668,89.034 189.286,97.171 184.72,101.929 C175.391,112.017 165.209,124.202 154.169,138.476 C134.945,163.408 121.905,178.161 115.056,182.731 L36.828,182.731 C26.74,182.731 18.126,186.305 10.988,193.437 C3.853,200.576 0.283,209.189 0.283,219.278 L0.283,402.001 C0.283,412.09 3.849,420.7 10.988,427.839 C18.13,434.978 26.74,438.55 36.828,438.55 L119.049,438.55 C123.237,438.55 136.368,442.356 158.448,449.97 C181.861,458.156 202.465,464.388 220.26,468.672 C238.057,472.956 256.092,475.099 274.366,475.099 L300.911,475.099 L311.195,475.099 C338.031,475.099 359.633,467.433 376.004,452.109 C392.369,436.785 400.462,415.896 400.274,389.439 C411.694,374.782 417.403,357.842 417.403,338.62 C417.403,334.435 417.122,330.343 416.548,326.342 C423.778,313.594 427.402,299.889 427.402,285.232 C427.399,278.379 426.544,271.809 424.829,265.532 Z M67.949,396.58 C64.333,400.194 60.051,402.008 55.102,402.008 C50.152,402.008 45.869,400.195 42.252,396.58 C38.637,392.967 36.828,388.683 36.828,383.73 C36.828,378.782 38.633,374.501 42.252,370.883 C45.873,367.266 50.152,365.458 55.102,365.458 C60.051,365.458 64.333,367.266 67.949,370.883 C71.566,374.5 73.375,378.781 73.375,383.73 C73.375,388.683 71.566,392.967 67.949,396.58 Z M396.145,242.419 C392.052,251.173 386.959,255.646 380.869,255.834 C383.723,259.071 386.104,263.596 388.008,269.396 C389.91,275.203 390.855,280.483 390.855,285.244 C390.855,298.371 385.818,309.699 375.729,319.213 C379.159,325.301 380.87,331.871 380.87,338.91 C380.87,345.953 379.207,352.948 375.874,359.894 C372.547,366.834 368.023,371.832 362.315,374.876 C363.266,380.585 363.738,385.916 363.738,390.864 C363.738,422.649 345.464,438.542 308.915,438.542 L274.379,438.542 C249.439,438.542 216.896,431.599 176.731,417.701 C175.778,417.321 173.022,416.318 168.451,414.703 C163.88,413.088 160.503,411.897 158.313,411.138 C156.123,410.371 152.795,409.277 148.319,407.853 C143.844,406.422 140.232,405.374 137.47,404.711 C134.712,404.047 131.569,403.428 128.051,402.856 C124.531,402.285 121.532,402.001 119.058,402.001 L109.922,402.001 L109.922,219.285 L119.058,219.285 C122.103,219.285 125.481,218.426 129.193,216.717 C132.904,215.003 136.713,212.434 140.614,209.007 C144.517,205.58 148.178,202.202 151.606,198.869 C155.033,195.539 158.839,191.352 163.028,186.31 C167.215,181.264 170.498,177.221 172.879,174.175 C175.257,171.13 178.254,167.226 181.871,162.468 C185.486,157.711 187.677,154.855 188.438,153.902 C198.905,140.961 206.233,132.301 210.42,127.921 C218.224,119.739 223.886,109.318 227.407,96.66 C230.932,84 233.834,72.056 236.11,60.828 C238.392,49.599 242.013,41.507 246.968,36.558 C265.236,36.558 277.421,41.029 283.51,49.976 C289.598,58.921 292.644,72.722 292.644,91.375 C292.644,102.604 288.072,117.878 278.934,137.196 C269.8,156.516 265.236,171.696 265.236,182.735 L365.731,182.735 C375.258,182.735 383.724,186.397 391.144,193.729 C398.57,201.056 402.287,209.572 402.287,219.282 C402.284,225.943 400.237,233.653 396.145,242.419 Z" id="Shape"></path>
        </g>
    </g>
</svg>
